<svg width="147" height="158" viewBox="0 0 147 158" fill="none" xmlns="http://www.w3.org/2000/svg">
<path d="M54.9825 13.1666C38.9765 13.1666 25.964 27.1891 25.964 44.4375C25.964 61.3566 38.2434 75.05 54.2494 75.6425C54.7381 75.5766 55.2269 75.5766 55.5934 75.6425H56.0211C63.5314 75.3724 70.6499 71.9655 75.8715 66.1421C81.0931 60.3187 84.0084 52.5352 84.001 44.4375C84.001 27.1891 70.9885 13.1666 54.9825 13.1666ZM86.0171 93.1475C68.9725 80.9025 41.1758 80.9025 24.009 93.1475C16.2504 98.7434 11.974 106.314 11.974 114.412C11.974 122.509 16.2504 130.014 23.9479 135.544C32.5008 141.733 43.7416 144.827 54.9825 144.827C66.2234 144.827 77.4642 141.733 86.0171 135.544C93.7146 129.948 97.991 122.443 97.991 114.28C97.9299 106.183 93.7146 98.6775 86.0171 93.1475ZM122.122 48.3085C123.1 61.0801 114.669 72.2718 103.001 73.786H102.695C102.329 73.786 101.962 73.786 101.657 73.9176C95.7306 74.2468 90.2935 72.206 86.2003 68.4535C92.4928 62.3968 96.0972 53.3118 95.3641 43.4368C94.9449 38.3018 93.3266 33.3647 90.66 29.0851C93.8612 27.4069 97.3931 26.5931 100.951 26.7139C104.509 26.8348 107.987 27.8866 111.083 29.7787C114.18 31.6708 116.803 34.3463 118.726 37.5745C120.649 40.8027 121.815 44.4866 122.122 48.3085Z" fill="#D4F2F4"/>
<path d="M134.328 109.218C133.84 115.603 130.052 121.133 123.698 124.886C117.589 128.507 109.892 130.218 102.255 130.021C106.654 125.742 109.22 120.409 109.708 114.748C110.319 106.584 106.715 98.75 99.5061 92.4958C95.413 89.0067 90.6478 86.2417 85.455 84.2008C98.9563 79.9875 115.94 82.8183 126.386 91.9033C132.007 96.775 134.878 102.898 134.328 109.218Z" fill="#D4F2F4"/>
</svg>
